<svg xmlns="http://www.w3.org/2000/svg" width="743" height="734" viewBox="0 0 743 734" fill="none"><rect x="191" y="383" width="353" height="211" fill="url(#paint0_linear_64_54)"></rect><path d="M604.52 128.149C584.04 126.818 533.019 121.186 502.12 97.6165C498.231 94.6031 493.451 92.9678 488.531 92.9678C483.611 92.9678 478.83 94.6031 474.941 97.6165C444.025 121.186 393.021 126.818 372.541 128.149C366.977 128.495 361.752 130.944 357.926 134.998C354.099 139.053 351.957 144.411 351.933 149.986V218.884C351.933 252.223 359.758 285.094 374.751 314.867H155.667C144.355 314.88 133.51 319.38 125.512 327.378C117.513 335.377 113.014 346.222 113 357.533V562.333C113.014 573.645 117.513 584.49 125.512 592.488C133.51 600.487 144.355 604.986 155.667 605H514.067C525.378 604.986 536.223 600.487 544.222 592.488C552.22 584.49 556.72 573.645 556.733 562.333V375.581C578.205 355.505 595.339 331.245 607.08 304.296C618.82 277.347 624.919 248.279 625 218.884V149.986C624.978 144.431 622.854 139.091 619.054 135.04C615.255 130.988 610.062 128.526 604.52 128.149ZM539.667 562.333C539.667 569.123 536.97 575.634 532.169 580.435C527.368 585.236 520.856 587.933 514.067 587.933H155.667C148.877 587.933 142.366 585.236 137.565 580.435C132.764 575.634 130.067 569.123 130.067 562.333V357.533C130.067 350.744 132.764 344.232 137.565 339.431C142.366 334.63 148.877 331.933 155.667 331.933H384.36C385.683 334.058 386.92 336.2 388.311 338.316C410.921 371.986 442.493 398.664 479.464 415.338C482.302 416.618 485.379 417.279 488.492 417.279C491.605 417.279 494.683 416.618 497.521 415.338C512.48 408.557 526.619 400.098 539.667 390.122V562.333ZM607.933 218.884C607.794 257.135 596.643 294.536 575.811 326.618C554.979 358.699 525.349 384.102 490.464 399.79C489.834 400.071 489.152 400.216 488.462 400.216C487.773 400.216 487.091 400.071 486.461 399.79C452.387 384.426 423.29 359.837 402.459 328.802C380.609 296.312 368.958 258.038 369 218.884V149.986C369.009 148.756 369.484 147.576 370.33 146.684C371.176 145.792 372.33 145.255 373.557 145.181C400.94 143.406 451.85 136.648 485.215 111.185C486.143 110.46 487.286 110.066 488.462 110.066C489.639 110.066 490.782 110.46 491.709 111.185C525.083 136.631 575.993 143.406 603.377 145.181C604.604 145.255 605.757 145.792 606.603 146.684C607.449 147.576 607.925 148.756 607.933 149.986V218.884Z" fill="#00509D"></path><path d="M576.309 159.56C548.544 156.189 521.616 147.831 496.821 134.89C494.274 133.447 491.398 132.689 488.471 132.689C485.544 132.689 482.667 133.447 480.121 134.89C455.324 147.834 428.393 156.191 400.625 159.56C396.584 160.161 392.892 162.191 390.221 165.282C387.549 168.373 386.075 172.319 386.067 176.405V218.884C386.029 254.64 396.663 289.593 416.607 319.27C432.889 343.441 454.663 363.413 480.147 377.553C485.318 380.386 491.581 380.386 496.753 377.553C525.178 361.918 548.899 338.956 565.449 311.054C581.999 283.151 590.776 251.325 590.867 218.884V176.405C590.858 172.319 589.384 168.373 586.713 165.282C584.041 162.191 580.35 160.161 576.309 159.56ZM573.8 218.884C573.714 248.285 565.754 277.127 550.747 302.41C535.74 327.693 514.235 348.495 488.467 362.653H488.381C465.263 349.815 445.513 331.685 430.747 309.747C412.706 282.882 403.091 251.244 403.133 218.884L403.039 176.422C432.906 172.838 461.868 163.793 488.467 149.73C515.036 163.775 543.961 172.817 573.8 176.405V218.884ZM181.267 425.8H215.4C222.19 425.8 228.701 423.103 233.502 418.302C238.303 413.501 241 406.99 241 400.2V383.133C241 376.344 238.303 369.832 233.502 365.031C228.701 360.23 222.19 357.533 215.4 357.533H181.267C174.477 357.533 167.966 360.23 163.165 365.031C158.364 369.832 155.667 376.344 155.667 383.133V400.2C155.667 406.99 158.364 413.501 163.165 418.302C167.966 423.103 174.477 425.8 181.267 425.8ZM172.733 383.133C172.733 380.87 173.632 378.7 175.233 377.099C176.833 375.499 179.003 374.6 181.267 374.6H215.4C217.663 374.6 219.834 375.499 221.434 377.099C223.034 378.7 223.933 380.87 223.933 383.133V400.2C223.933 402.463 223.034 404.634 221.434 406.234C219.834 407.834 217.663 408.733 215.4 408.733H181.267C179.003 408.733 176.833 407.834 175.233 406.234C173.632 404.634 172.733 402.463 172.733 400.2V383.133ZM164.2 468.467H198.333C200.597 468.467 202.767 467.568 204.367 465.967C205.968 464.367 206.867 462.197 206.867 459.933C206.867 457.67 205.968 455.5 204.367 453.899C202.767 452.299 200.597 451.4 198.333 451.4H164.2C161.937 451.4 159.766 452.299 158.166 453.899C156.566 455.5 155.667 457.67 155.667 459.933C155.667 462.197 156.566 464.367 158.166 465.967C159.766 467.568 161.937 468.467 164.2 468.467ZM266.6 451.4H232.467C230.203 451.4 228.033 452.299 226.433 453.899C224.832 455.5 223.933 457.67 223.933 459.933C223.933 462.197 224.832 464.367 226.433 465.967C228.033 467.568 230.203 468.467 232.467 468.467H266.6C268.863 468.467 271.034 467.568 272.634 465.967C274.234 464.367 275.133 462.197 275.133 459.933C275.133 457.67 274.234 455.5 272.634 453.899C271.034 452.299 268.863 451.4 266.6 451.4ZM334.867 451.4H300.733C298.47 451.4 296.3 452.299 294.699 453.899C293.099 455.5 292.2 457.67 292.2 459.933C292.2 462.197 293.099 464.367 294.699 465.967C296.3 467.568 298.47 468.467 300.733 468.467H334.867C337.13 468.467 339.3 467.568 340.901 465.967C342.501 464.367 343.4 462.197 343.4 459.933C343.4 457.67 342.501 455.5 340.901 453.899C339.3 452.299 337.13 451.4 334.867 451.4ZM403.133 451.4H369C366.737 451.4 364.566 452.299 362.966 453.899C361.366 455.5 360.467 457.67 360.467 459.933C360.467 462.197 361.366 464.367 362.966 465.967C364.566 467.568 366.737 468.467 369 468.467H403.133C405.397 468.467 407.567 467.568 409.167 465.967C410.768 464.367 411.667 462.197 411.667 459.933C411.667 457.67 410.768 455.5 409.167 453.899C407.567 452.299 405.397 451.4 403.133 451.4ZM479.933 459.933C479.933 457.67 479.034 455.5 477.434 453.899C475.834 452.299 473.663 451.4 471.4 451.4H437.267C435.003 451.4 432.833 452.299 431.233 453.899C429.632 455.5 428.733 457.67 428.733 459.933C428.733 462.197 429.632 464.367 431.233 465.967C432.833 467.568 435.003 468.467 437.267 468.467H471.4C473.663 468.467 475.834 467.568 477.434 465.967C479.034 464.367 479.933 462.197 479.933 459.933ZM223.933 502.6H198.333C196.07 502.6 193.9 503.499 192.299 505.099C190.699 506.7 189.8 508.87 189.8 511.133C189.8 513.397 190.699 515.567 192.299 517.167C193.9 518.768 196.07 519.667 198.333 519.667H223.933C226.197 519.667 228.367 518.768 229.967 517.167C231.568 515.567 232.467 513.397 232.467 511.133C232.467 508.87 231.568 506.7 229.967 505.099C228.367 503.499 226.197 502.6 223.933 502.6ZM223.933 536.733H164.2C161.937 536.733 159.766 537.632 158.166 539.233C156.566 540.833 155.667 543.004 155.667 545.267C155.667 547.53 156.566 549.7 158.166 551.301C159.766 552.901 161.937 553.8 164.2 553.8H223.933C226.197 553.8 228.367 552.901 229.967 551.301C231.568 549.7 232.467 547.53 232.467 545.267C232.467 543.004 231.568 540.833 229.967 539.233C228.367 537.632 226.197 536.733 223.933 536.733Z" fill="#00509D"></path><path d="M462.867 212.467V221C458.34 221 453.999 222.798 450.799 225.999C447.598 229.199 445.8 233.54 445.8 238.067V289.267C445.8 293.793 447.598 298.134 450.799 301.335C453.999 304.535 458.34 306.333 462.867 306.333H514.067C518.593 306.333 522.934 304.535 526.135 301.335C529.335 298.134 531.133 293.793 531.133 289.267V238.067C531.133 233.54 529.335 229.199 526.135 225.999C522.934 222.798 518.593 221 514.067 221V212.467C514.067 205.677 511.37 199.166 506.569 194.365C501.768 189.564 495.256 186.867 488.467 186.867C481.677 186.867 475.166 189.564 470.365 194.365C465.564 199.166 462.867 205.677 462.867 212.467ZM479.933 212.467C479.933 210.203 480.832 208.033 482.433 206.433C484.033 204.832 486.204 203.933 488.467 203.933C490.73 203.933 492.9 204.832 494.501 206.433C496.101 208.033 497 210.203 497 212.467V221H479.933V212.467ZM505.533 238.067H514.067V289.267H462.867V238.067H505.533Z" fill="#00509D"></path><path d="M488.467 272.2C493.18 272.2 497 268.379 497 263.667C497 258.954 493.18 255.133 488.467 255.133C483.754 255.133 479.933 258.954 479.933 263.667C479.933 268.379 483.754 272.2 488.467 272.2Z" fill="#00509D"></path><path d="M497 545.267H454.333C452.07 545.267 449.9 546.166 448.299 547.766C446.699 549.366 445.8 551.537 445.8 553.8C445.8 556.063 446.699 558.234 448.299 559.834C449.9 561.434 452.07 562.333 454.333 562.333H505.533C507.797 562.333 509.967 561.434 511.567 559.834C513.168 558.234 514.067 556.063 514.067 553.8V511.133C514.067 508.87 513.168 506.7 511.567 505.099C509.967 503.499 507.797 502.6 505.533 502.6C503.27 502.6 501.1 503.499 499.499 505.099C497.899 506.7 497 508.87 497 511.133V545.267Z" fill="#00509D"></path><circle cx="32.5" cy="159.5" r="27.5" stroke="url(#paint1_linear_64_54)" stroke-width="10"></circle><circle cx="653" cy="506" r="20" stroke="#00509D" stroke-width="10"></circle><circle cx="583" cy="20" r="15" stroke="#00509D" stroke-width="10"></circle><path d="M60.1923 600.192H44.8077V584.808C44.8077 582.147 42.661 580 40 580C37.339 580 35.1923 582.147 35.1923 584.808V600.192H19.8077C17.1467 600.192 15 602.339 15 605C15 607.661 17.1467 609.808 19.8077 609.808H35.1923V625.192C35.1923 627.853 37.339 630 40 630C42.661 630 44.8077 627.853 44.8077 625.192V609.808H60.1923C62.8533 609.808 65 607.661 65 605C65 602.339 62.8533 600.192 60.1923 600.192Z" fill="url(#paint2_linear_64_54)"></path><path d="M533.192 704.192H517.808V688.808C517.808 686.147 515.661 684 513 684C510.339 684 508.192 686.147 508.192 688.808V704.192H492.808C490.147 704.192 488 706.339 488 709C488 711.661 490.147 713.808 492.808 713.808H508.192V729.192C508.192 731.853 510.339 734 513 734C515.661 734 517.808 731.853 517.808 729.192V713.808H533.192C535.853 713.808 538 711.661 538 709C538 706.339 535.853 704.192 533.192 704.192Z" fill="#00509D"></path><path d="M738.192 129.192H722.808V113.808C722.808 111.147 720.661 109 718 109C715.339 109 713.192 111.147 713.192 113.808V129.192H697.808C695.147 129.192 693 131.339 693 134C693 136.661 695.147 138.808 697.808 138.808H713.192V154.192C713.192 156.853 715.339 159 718 159C720.661 159 722.808 156.853 722.808 154.192V138.808H738.192C740.853 138.808 743 136.661 743 134C743 131.339 740.853 129.192 738.192 129.192Z" fill="#00509D"></path><defs><linearGradient id="paint0_linear_64_54" x1="544" y1="383" x2="178.096" y2="408.446" gradientUnits="userSpaceOnUse"><stop stop-color="#FD8900"></stop><stop offset="1" stop-color="#FFC700"></stop></linearGradient><linearGradient id="paint1_linear_64_54" x1="65" y1="127" x2="-2.58517" y2="129.809" gradientUnits="userSpaceOnUse"><stop stop-color="#FD8900"></stop><stop offset="1" stop-color="#FFC700"></stop></linearGradient><linearGradient id="paint2_linear_64_54" x1="65" y1="580" x2="13.0114" y2="582.161" gradientUnits="userSpaceOnUse"><stop stop-color="#FD8900"></stop><stop offset="1" stop-color="#FFC700"></stop></linearGradient></defs></svg>