<svg xmlns="http://www.w3.org/2000/svg" width="743" height="734" viewBox="0 0 743 734" fill="none"><circle cx="32.5" cy="159.5" r="27.5" stroke="url(#paint0_linear_66_5)" stroke-width="10"></circle><circle cx="653" cy="506" r="20" stroke="#00509D" stroke-width="10"></circle><circle cx="583" cy="20" r="15" stroke="#00509D" stroke-width="10"></circle><path d="M60.1923 600.192H44.8077V584.808C44.8077 582.147 42.661 580 40 580C37.339 580 35.1923 582.147 35.1923 584.808V600.192H19.8077C17.1467 600.192 15 602.339 15 605C15 607.661 17.1467 609.808 19.8077 609.808H35.1923V625.192C35.1923 627.853 37.339 630 40 630C42.661 630 44.8077 627.853 44.8077 625.192V609.808H60.1923C62.8533 609.808 65 607.661 65 605C65 602.339 62.8533 600.192 60.1923 600.192Z" fill="url(#paint1_linear_66_5)"></path><path d="M533.192 704.192H517.808V688.808C517.808 686.147 515.661 684 513 684C510.339 684 508.192 686.147 508.192 688.808V704.192H492.808C490.147 704.192 488 706.339 488 709C488 711.661 490.147 713.808 492.808 713.808H508.192V729.192C508.192 731.853 510.339 734 513 734C515.661 734 517.808 731.853 517.808 729.192V713.808H533.192C535.853 713.808 538 711.661 538 709C538 706.339 535.853 704.192 533.192 704.192Z" fill="#00509D"></path><path d="M738.192 129.192H722.808V113.808C722.808 111.147 720.661 109 718 109C715.339 109 713.192 111.147 713.192 113.808V129.192H697.808C695.147 129.192 693 131.339 693 134C693 136.661 695.147 138.808 697.808 138.808H713.192V154.192C713.192 156.853 715.339 159 718 159C720.661 159 722.808 156.853 722.808 154.192V138.808H738.192C740.853 138.808 743 136.661 743 134C743 131.339 740.853 129.192 738.192 129.192Z" fill="#00509D"></path><rect x="291" y="228" width="153" height="135" rx="10" fill="url(#paint2_linear_66_5)"></rect><path d="M586.182 394.443C580.963 394.437 575.842 395.858 571.372 398.551L529.022 356.201C528.372 355.551 527.6 355.035 526.751 354.684C525.902 354.332 524.991 354.151 524.072 354.151H459.883C455.172 348.151 455.464 341.05 457.508 336.115C459.756 330.687 465.343 324.887 474.281 324.887C482.26 324.887 488.753 318.395 488.753 310.415V306.04H525.353C528.489 318.558 539.831 327.858 553.307 327.858C569.198 327.858 582.125 314.93 582.125 299.04C582.125 283.149 569.197 270.222 553.307 270.222C539.83 270.222 528.489 279.522 525.353 292.04H488.753V287.665C488.753 279.685 482.261 273.193 474.281 273.193C465.343 273.193 459.756 267.393 457.508 261.965C455.464 257.03 455.172 249.929 459.883 243.929H524.072C524.991 243.929 525.902 243.748 526.751 243.396C527.6 243.045 528.372 242.529 529.022 241.879L571.372 199.529C575.842 202.222 580.964 203.643 586.183 203.637C602.074 203.637 615.001 190.709 615.001 174.819C615.001 158.929 602.072 146 586.182 146C570.292 146 557.364 158.928 557.364 174.818C557.358 180.037 558.779 185.158 561.472 189.629L521.173 229.929H465.515C465.092 226.812 463.657 223.92 461.43 221.698L445.343 205.612C442.611 202.878 438.976 201.372 435.11 201.372C431.244 201.372 427.609 202.877 424.876 205.611C418.557 211.931 410.505 211.78 405.076 209.532C399.648 207.284 393.848 201.697 393.848 192.758C393.848 184.778 387.356 178.286 379.376 178.286H356.626C348.647 178.286 342.154 184.778 342.154 192.758C342.154 201.696 336.354 207.284 330.925 209.532C325.5 211.781 317.446 211.931 311.126 205.611C308.393 202.878 304.758 201.372 300.892 201.372C297.026 201.372 293.391 202.878 290.659 205.611L274.573 221.697C272.346 223.919 270.91 226.811 270.487 229.928H214.829L174.53 189.628C177.223 185.157 178.643 180.036 178.638 174.817C178.637 158.928 165.709 146 149.818 146C133.927 146 121 158.928 121 174.818C121 190.708 133.928 203.636 149.818 203.636C155.037 203.642 160.158 202.221 164.629 199.528L206.979 241.878C207.629 242.528 208.401 243.044 209.25 243.395C210.099 243.747 211.01 243.928 211.929 243.928H276.119C280.829 249.928 280.537 257.028 278.494 261.964C276.246 267.392 270.658 273.192 261.72 273.192C253.741 273.192 247.248 279.684 247.248 287.664V292.039H210.648C207.512 279.521 196.171 270.221 182.695 270.221C166.804 270.221 153.877 283.149 153.877 299.039C153.877 314.929 166.805 327.857 182.695 327.857C196.171 327.857 207.512 318.557 210.648 306.039H247.248V310.414C247.248 318.394 253.74 324.886 261.72 324.886C270.658 324.886 276.246 330.686 278.494 336.114C280.538 341.05 280.83 348.151 276.119 354.15H211.929C211.01 354.15 210.099 354.331 209.25 354.683C208.401 355.034 207.629 355.55 206.979 356.2L164.629 398.55C160.159 395.857 155.038 394.436 149.819 394.442C133.928 394.443 121 407.371 121 423.261C121 439.152 133.928 452.079 149.818 452.079C165.708 452.079 178.636 439.151 178.636 423.261C178.642 418.043 177.221 412.922 174.528 408.452L214.827 368.151H270.485C270.908 371.268 272.343 374.16 274.57 376.382L290.657 392.468C293.389 395.201 297.024 396.707 300.89 396.707C304.756 396.707 308.391 395.202 311.124 392.469C315.751 387.842 320.87 386.99 324.345 387.104C328.63 387.243 332.738 388.847 335.982 391.65L335.991 483.959C322.558 480.897 307.961 481.483 298.022 496.667C287.555 512.661 291.518 534.014 307.043 545.276C320.767 555.234 331.085 563.877 340.189 571.502C367.427 594.314 382.431 606.879 433.924 609.827C435.934 609.942 437.932 610 439.925 609.999C465.654 609.998 489.858 600.455 508.62 582.785C529.292 563.317 541.192 535.858 541.27 507.373L540.703 435.726C540.71 427.513 537.499 419.771 531.661 413.927C525.824 408.084 518.086 404.865 509.874 404.86H509.852C501.643 404.86 493.91 408.073 488.074 413.909C487.356 414.627 486.672 415.38 486.026 416.164C485.39 415.393 484.718 414.653 484.013 413.945C478.175 408.092 470.432 404.866 462.209 404.86H462.188C453.983 404.86 446.249 408.072 440.413 413.904C439.691 414.625 439.004 415.381 438.355 416.169C437.713 415.39 437.033 414.641 436.319 413.927C430.483 408.086 422.747 404.866 414.535 404.861H414.514C408.455 404.861 402.603 406.715 397.563 410.163L397.58 394.205C400.587 390.368 405.166 387.8 410.163 387.231C415.644 386.608 420.869 388.467 424.872 392.471C427.605 395.204 431.24 396.709 435.106 396.709C438.972 396.709 442.607 395.203 445.339 392.471L461.425 376.385C463.653 374.163 465.088 371.271 465.511 368.153H521.169L561.468 408.454C558.775 412.924 557.354 418.045 557.36 423.263C557.36 439.154 570.288 452.081 586.178 452.081C602.068 452.081 615 439.151 615 423.261C615 407.371 602.072 394.443 586.182 394.443ZM553.306 284.222C561.477 284.222 568.124 290.869 568.124 299.04C568.124 307.21 561.477 313.858 553.306 313.858C545.135 313.858 538.488 307.211 538.488 299.04C538.487 290.869 545.135 284.222 553.306 284.222ZM586.182 160C594.353 160 601 166.647 601 174.818C601 182.989 594.353 189.636 586.182 189.636C578.011 189.636 571.364 182.989 571.364 174.818C571.364 166.647 578.011 160 586.182 160ZM149.818 189.637C141.647 189.637 135 182.989 135 174.818C135 166.647 141.647 160 149.818 160C157.989 160 164.636 166.647 164.636 174.818C164.636 182.989 157.989 189.637 149.818 189.637ZM182.694 313.858C174.523 313.858 167.876 307.211 167.876 299.04C167.876 290.869 174.523 284.222 182.694 284.222C190.864 284.222 197.511 290.869 197.511 299.04C197.512 307.21 190.864 313.858 182.694 313.858ZM149.818 438.079C141.647 438.079 135 431.432 135 423.261C135 415.091 141.647 408.444 149.818 408.444C157.989 408.444 164.636 415.091 164.636 423.261C164.637 431.432 157.989 438.079 149.818 438.079ZM388.629 286.537C382.793 280.695 375.056 277.474 366.843 277.468H366.822C358.619 277.468 350.885 280.679 345.047 286.51C339.202 292.346 335.981 300.084 335.976 308.302L335.979 335.609C325.554 326.517 319.411 313.325 319.411 299.041C319.411 272.249 341.208 250.452 368.001 250.452C394.793 250.452 416.59 272.249 416.59 299.041C416.59 314.301 409.409 328.456 397.643 337.534L397.674 308.338C397.68 300.124 394.468 292.381 388.629 286.537ZM402.828 423.919C406.079 420.655 410.229 418.858 414.516 418.858H414.528C419.002 418.861 423.225 420.624 426.419 423.82C429.604 427.007 431.356 431.211 431.357 435.661V435.708C431.358 437.563 432.095 439.343 433.406 440.655C434.718 441.967 436.497 442.705 438.352 442.706H438.357C440.211 442.706 441.99 441.97 443.302 440.66C444.615 439.35 445.354 437.572 445.357 435.718V435.663C445.366 431.2 447.126 426.991 450.312 423.807C453.505 420.616 457.723 418.86 462.193 418.86H462.204C466.684 418.863 470.91 420.629 474.104 423.832C477.278 427.014 479.026 431.21 479.028 435.649V435.712C479.029 437.567 479.767 439.345 481.078 440.657C482.39 441.968 484.168 442.706 486.023 442.707H486.028C487.882 442.707 489.66 441.971 490.973 440.662C492.285 439.352 493.024 437.575 493.028 435.721V435.648C493.04 431.193 494.796 426.991 497.976 423.809C501.168 420.618 505.386 418.861 509.857 418.861H509.87C514.345 418.863 518.567 420.626 521.762 423.823C524.955 427.02 526.712 431.243 526.708 435.777L527.275 507.411C527.208 531.993 516.912 555.753 499.027 572.596C481.638 588.971 458.802 597.222 434.729 595.853C387.867 593.169 374.938 582.342 349.181 560.771C339.903 553 329.385 544.192 315.268 533.948C305.797 527.078 303.369 514.07 309.739 504.337C312.495 500.127 315.83 496.455 323.865 496.455C328.043 496.455 333.49 497.447 340.787 499.872C341.839 500.222 342.96 500.318 344.056 500.15C345.152 499.982 346.193 499.557 347.092 498.908C347.992 498.259 348.724 497.405 349.228 496.418C349.733 495.43 349.996 494.337 349.995 493.228L349.976 308.309C349.979 303.836 351.742 299.613 354.94 296.42C358.135 293.229 362.355 291.472 366.823 291.472H366.834C371.309 291.475 375.531 293.238 378.727 296.435C381.921 299.632 383.678 303.857 383.674 308.328L383.54 436.209L383.539 436.54C383.548 438.391 384.289 440.162 385.601 441.468C386.913 442.773 388.688 443.506 390.539 443.506H390.553C392.406 443.502 394.181 442.764 395.491 441.454C396.8 440.143 397.537 438.367 397.539 436.514V436.26C397.575 431.751 399.496 427.266 402.828 423.919ZM451.528 366.482L435.441 382.569C435.407 382.603 435.303 382.707 435.108 382.707C435.046 382.709 434.984 382.697 434.926 382.673C434.869 382.649 434.817 382.613 434.774 382.568C427.794 375.588 418.238 372.216 408.581 373.318C404.757 373.76 401.04 374.872 397.601 376.602L397.625 354.184C417.792 343.337 430.589 322.169 430.589 299.04C430.589 264.528 402.512 236.451 368 236.451C333.488 236.451 305.41 264.529 305.41 299.04C305.41 321.332 317.016 341.562 335.98 352.829L335.982 375.467C332.414 374.028 328.62 373.23 324.774 373.11C315.942 372.833 307.594 376.2 301.225 382.568C301.191 382.602 301.087 382.707 300.891 382.707C300.829 382.708 300.767 382.697 300.71 382.673C300.652 382.649 300.601 382.613 300.558 382.568L284.47 366.481C284.436 366.447 284.332 366.344 284.332 366.148C284.332 365.952 284.436 365.849 284.471 365.814C293.838 356.446 296.503 343.013 291.427 330.757C286.35 318.501 274.966 310.887 261.718 310.887C261.593 310.887 261.473 310.837 261.385 310.748C261.296 310.66 261.246 310.54 261.246 310.415V287.665C261.246 287.405 261.458 287.193 261.718 287.193C274.966 287.193 286.35 279.579 291.427 267.322C296.503 255.065 293.838 241.633 284.47 232.265C284.436 232.231 284.332 232.127 284.332 231.932C284.332 231.737 284.436 231.633 284.471 231.598L300.558 215.51C300.601 215.465 300.653 215.43 300.71 215.407C300.768 215.383 300.829 215.372 300.891 215.373C301.087 215.373 301.191 215.477 301.225 215.511C310.593 224.879 324.027 227.544 336.282 222.468C348.539 217.391 356.153 206.008 356.153 192.76C356.153 192.5 356.365 192.288 356.625 192.288H379.375C379.635 192.288 379.847 192.5 379.847 192.76C379.847 206.008 387.461 217.391 399.717 222.468C411.975 227.546 425.407 224.879 434.775 215.512C434.809 215.478 434.913 215.374 435.109 215.374C435.304 215.374 435.408 215.478 435.442 215.512L451.53 231.599C451.564 231.633 451.668 231.737 451.668 231.932C451.668 232.127 451.564 232.231 451.53 232.266C442.162 241.633 439.497 255.066 444.573 267.323C449.65 279.58 461.033 287.194 474.281 287.194C474.541 287.194 474.753 287.406 474.753 287.666V310.416C474.753 310.676 474.541 310.888 474.281 310.888C461.034 310.888 449.65 318.502 444.573 330.758C439.497 343.014 442.162 356.448 451.53 365.816C451.564 365.85 451.668 365.954 451.668 366.149C451.668 366.344 451.563 366.447 451.528 366.482ZM586.182 438.079C578.011 438.079 571.364 431.432 571.364 423.261C571.364 415.091 578.011 408.444 586.182 408.444C594.353 408.444 601 415.091 601 423.261C601 431.432 594.353 438.079 586.182 438.079Z" fill="#00509D"></path><defs><linearGradient id="paint0_linear_66_5" x1="65" y1="127" x2="-2.58517" y2="129.809" gradientUnits="userSpaceOnUse"><stop stop-color="#FD8900"></stop><stop offset="1" stop-color="#FFC700"></stop></linearGradient><linearGradient id="paint1_linear_66_5" x1="65" y1="580" x2="13.0114" y2="582.161" gradientUnits="userSpaceOnUse"><stop stop-color="#FD8900"></stop><stop offset="1" stop-color="#FFC700"></stop></linearGradient><linearGradient id="paint2_linear_66_5" x1="444" y1="228" x2="284.993" y2="235.491" gradientUnits="userSpaceOnUse"><stop stop-color="#FD8900"></stop><stop offset="1" stop-color="#FFC700"></stop></linearGradient></defs></svg>