<svg xmlns="http://www.w3.org/2000/svg" width="743" height="734" viewBox="0 0 743 734" fill="none"><circle cx="32.5" cy="159.5" r="27.5" stroke="url(#paint0_linear_66_6)" stroke-width="10"></circle><circle cx="653" cy="506" r="20" stroke="#00509D" stroke-width="10"></circle><circle cx="583" cy="20" r="15" stroke="#00509D" stroke-width="10"></circle><path d="M60.1923 600.192H44.8077V584.808C44.8077 582.147 42.661 580 40 580C37.339 580 35.1923 582.147 35.1923 584.808V600.192H19.8077C17.1467 600.192 15 602.339 15 605C15 607.661 17.1467 609.808 19.8077 609.808H35.1923V625.192C35.1923 627.853 37.339 630 40 630C42.661 630 44.8077 627.853 44.8077 625.192V609.808H60.1923C62.8533 609.808 65 607.661 65 605C65 602.339 62.8533 600.192 60.1923 600.192Z" fill="url(#paint1_linear_66_6)"></path><path d="M533.192 704.192H517.808V688.808C517.808 686.147 515.661 684 513 684C510.339 684 508.192 686.147 508.192 688.808V704.192H492.808C490.147 704.192 488 706.339 488 709C488 711.661 490.147 713.808 492.808 713.808H508.192V729.192C508.192 731.853 510.339 734 513 734C515.661 734 517.808 731.853 517.808 729.192V713.808H533.192C535.853 713.808 538 711.661 538 709C538 706.339 535.853 704.192 533.192 704.192Z" fill="#00509D"></path><path d="M738.192 129.192H722.808V113.808C722.808 111.147 720.661 109 718 109C715.339 109 713.192 111.147 713.192 113.808V129.192H697.808C695.147 129.192 693 131.339 693 134C693 136.661 695.147 138.808 697.808 138.808H713.192V154.192C713.192 156.853 715.339 159 718 159C720.661 159 722.808 156.853 722.808 154.192V138.808H738.192C740.853 138.808 743 136.661 743 134C743 131.339 740.853 129.192 738.192 129.192Z" fill="#00509D"></path><rect x="176" y="204" width="425" height="242" rx="10" fill="url(#paint2_linear_66_6)"></rect><path d="M604 172H420V140H493.44C495.327 145.338 499.041 149.836 503.924 152.701C508.807 155.566 514.546 156.612 520.126 155.654C525.706 154.697 530.768 151.798 534.417 147.469C538.066 143.141 540.067 137.661 540.067 132C540.067 126.338 538.066 120.859 534.417 116.531C530.768 112.202 525.706 109.303 520.126 108.346C514.546 107.388 508.807 108.434 503.924 111.299C499.041 114.164 495.327 118.662 493.44 124H412C409.878 124 407.843 124.843 406.343 126.343C404.843 127.843 404 129.878 404 132V172H340V132C340 129.878 339.157 127.843 337.657 126.343C336.157 124.843 334.122 124 332 124H250.56C248.673 118.662 244.959 114.164 240.076 111.299C235.193 108.434 229.454 107.388 223.874 108.346C218.294 109.303 213.232 112.202 209.583 116.531C205.934 120.859 203.933 126.338 203.933 132C203.933 137.661 205.934 143.141 209.583 147.469C213.232 151.798 218.294 154.697 223.874 155.654C229.454 156.612 235.193 155.566 240.076 152.701C244.959 149.836 248.673 145.338 250.56 140H324V172H140C137.878 172 135.843 172.843 134.343 174.343C132.843 175.843 132 177.878 132 180V484C132 486.122 132.843 488.157 134.343 489.657C135.843 491.157 137.878 492 140 492H316V540H236C233.878 540 231.843 540.843 230.343 542.343C228.843 543.843 228 545.878 228 548V580C228 582.122 228.843 584.157 230.343 585.657C231.843 587.157 233.878 588 236 588H508C510.122 588 512.157 587.157 513.657 585.657C515.157 584.157 516 582.122 516 580V548C516 545.878 515.157 543.843 513.657 542.343C512.157 540.843 510.122 540 508 540H428V492H604C606.122 492 608.157 491.157 609.657 489.657C611.157 488.157 612 486.122 612 484V180C612 177.878 611.157 175.843 609.657 174.343C608.157 172.843 606.122 172 604 172ZM516 124C517.582 124 519.129 124.469 520.445 125.348C521.76 126.227 522.786 127.477 523.391 128.939C523.997 130.4 524.155 132.009 523.846 133.561C523.538 135.113 522.776 136.538 521.657 137.657C520.538 138.776 519.113 139.538 517.561 139.846C516.009 140.155 514.4 139.997 512.939 139.391C511.477 138.786 510.227 137.76 509.348 136.445C508.469 135.129 508 133.582 508 132C508 129.878 508.843 127.843 510.343 126.343C511.843 124.843 513.878 124 516 124ZM228 140C226.418 140 224.871 139.531 223.555 138.652C222.24 137.773 221.214 136.523 220.609 135.061C220.003 133.6 219.845 131.991 220.154 130.439C220.462 128.887 221.224 127.462 222.343 126.343C223.462 125.224 224.887 124.462 226.439 124.154C227.991 123.845 229.6 124.003 231.061 124.609C232.523 125.214 233.773 126.24 234.652 127.555C235.531 128.871 236 130.418 236 132C236 134.122 235.157 136.157 233.657 137.657C232.157 139.157 230.122 140 228 140ZM404 188V266.08L396.96 273.04L396 272.64V260C396 257.878 395.157 255.843 393.657 254.343C392.157 252.843 390.122 252 388 252H356C353.878 252 351.843 252.843 350.343 254.343C348.843 255.843 348 257.878 348 260V272.64L347.04 273.04L340 266.08V188H404ZM414.24 309.2C415.814 312.098 417.074 315.155 418 318.32C418.514 320.021 419.579 321.502 421.027 322.53C422.476 323.559 424.225 324.076 426 324H436V340H425.68C423.905 339.924 422.156 340.441 420.707 341.47C419.259 342.498 418.194 343.979 417.68 345.68C416.754 348.845 415.494 351.902 413.92 354.8C413.2 356.316 412.974 358.02 413.276 359.671C413.577 361.322 414.39 362.837 415.6 364L422.88 371.28L412 382.88L404 375.6C402.775 374.372 401.184 373.575 399.467 373.33C397.75 373.085 396 373.404 394.48 374.24C391.582 375.814 388.525 377.074 385.36 378C383.659 378.514 382.178 379.579 381.15 381.027C380.121 382.476 379.604 384.225 379.68 386V396H364V385.68C364.076 383.905 363.559 382.156 362.53 380.707C361.502 379.259 360.021 378.194 358.32 377.68C355.155 376.754 352.098 375.494 349.2 373.92C347.68 373.084 345.93 372.765 344.213 373.01C342.496 373.255 340.905 374.052 339.68 375.28L332.4 382.56L321.12 372L328.4 364.72C329.628 363.495 330.425 361.904 330.67 360.187C330.915 358.47 330.596 356.72 329.76 355.2C328.186 352.302 326.926 349.245 326 346.08C325.486 344.379 324.421 342.898 322.973 341.87C321.524 340.841 319.775 340.324 318 340.4H308V324H318.32C320.095 324.076 321.844 323.559 323.293 322.53C324.741 321.502 325.806 320.021 326.32 318.32C327.246 315.155 328.506 312.098 330.08 309.2C330.8 307.684 331.026 305.98 330.724 304.329C330.423 302.678 329.61 301.163 328.4 300L321.12 292.72L332.4 281.44L339.68 288.72C340.905 289.948 342.496 290.745 344.213 290.99C345.93 291.235 347.68 290.916 349.2 290.08C352.098 288.506 355.155 287.246 358.32 286.32C360.021 285.806 361.502 284.741 362.53 283.293C363.559 281.844 364.076 280.095 364 278.32V268H380V278.32C379.924 280.095 380.441 281.844 381.47 283.293C382.498 284.741 383.979 285.806 385.68 286.32C388.845 287.246 391.902 288.506 394.8 290.08C396.316 290.8 398.02 291.026 399.671 290.724C401.322 290.423 402.837 289.61 404 288.4L411.28 281.12L422.56 292.4L415.28 299.68C414.103 300.942 413.366 302.551 413.178 304.267C412.991 305.983 413.363 307.713 414.24 309.2ZM324 188V266.88L304.08 286.72C303.33 287.464 302.735 288.349 302.329 289.323C301.923 290.298 301.714 291.344 301.714 292.4C301.714 293.456 301.923 294.502 302.329 295.477C302.735 296.451 303.33 297.336 304.08 298.08L313.04 307.04C312.941 307.373 312.807 307.695 312.64 308H300C297.878 308 295.843 308.843 294.343 310.343C292.843 311.843 292 313.878 292 316V324H210.56C208.673 318.662 204.959 314.164 200.076 311.299C195.193 308.434 189.454 307.388 183.874 308.346C178.294 309.303 173.232 312.202 169.583 316.531C165.934 320.859 163.933 326.338 163.933 332C163.933 337.661 165.934 343.141 169.583 347.469C173.232 351.798 178.294 354.697 183.874 355.654C189.454 356.612 195.193 355.566 200.076 352.701C204.959 349.836 208.673 345.338 210.56 340H292V348C292 350.122 292.843 352.157 294.343 353.657C295.843 355.157 297.878 356 300 356H312.64C312.807 356.305 312.941 356.627 313.04 356.96L304.08 365.92C303.339 366.668 302.752 367.554 302.354 368.529C301.956 369.503 301.754 370.547 301.76 371.6C301.789 373.718 302.618 375.747 304.08 377.28L326.72 399.92C327.464 400.67 328.349 401.265 329.323 401.671C330.298 402.077 331.344 402.286 332.4 402.286C333.456 402.286 334.502 402.077 335.477 401.671C336.451 401.265 337.336 400.67 338.08 399.92L347.04 390.96L348 391.36V404C348 406.122 348.843 408.157 350.343 409.657C351.843 411.157 353.878 412 356 412H388C390.122 412 392.157 411.157 393.657 409.657C395.157 408.157 396 406.122 396 404V391.36L396.96 390.96L405.92 399.92C406.664 400.67 407.548 401.265 408.523 401.671C409.498 402.077 410.544 402.286 411.6 402.286C412.656 402.286 413.702 402.077 414.677 401.671C415.651 401.265 416.536 400.67 417.28 399.92L439.92 377.28C441.382 375.747 442.211 373.718 442.24 371.6C442.246 370.547 442.044 369.503 441.646 368.529C441.248 367.554 440.661 366.668 439.92 365.92L430.96 356.96C431.059 356.627 431.193 356.305 431.36 356H444C446.122 356 448.157 355.157 449.657 353.657C451.157 352.157 452 350.122 452 348V340H533.44C535.327 345.338 539.041 349.836 543.924 352.701C548.807 355.566 554.546 356.612 560.126 355.654C565.706 354.697 570.768 351.798 574.417 347.469C578.066 343.141 580.067 337.661 580.067 332C580.067 326.338 578.066 320.859 574.417 316.531C570.768 312.202 565.706 309.303 560.126 308.346C554.546 307.388 548.807 308.434 543.924 311.299C539.041 314.164 535.327 318.662 533.44 324H452V316C452 313.878 451.157 311.843 449.657 310.343C448.157 308.843 446.122 308 444 308H431.36C431.193 307.695 431.059 307.373 430.96 307.04L439.92 298.08C440.67 297.336 441.265 296.451 441.671 295.477C442.077 294.502 442.286 293.456 442.286 292.4C442.286 291.344 442.077 290.298 441.671 289.323C441.265 288.349 440.67 287.464 439.92 286.72L420 266.88V188H596V444H148V188H324ZM196 332C196 333.582 195.531 335.129 194.652 336.445C193.773 337.76 192.523 338.786 191.061 339.391C189.6 339.997 187.991 340.155 186.439 339.846C184.887 339.538 183.462 338.776 182.343 337.657C181.224 336.538 180.462 335.113 180.154 333.561C179.845 332.009 180.003 330.4 180.609 328.939C181.214 327.477 182.24 326.227 183.555 325.348C184.871 324.469 186.418 324 188 324C190.122 324 192.157 324.843 193.657 326.343C195.157 327.843 196 329.878 196 332ZM548 332C548 330.418 548.469 328.871 549.348 327.555C550.227 326.24 551.477 325.214 552.939 324.609C554.4 324.003 556.009 323.845 557.561 324.154C559.113 324.462 560.538 325.224 561.657 326.343C562.776 327.462 563.538 328.887 563.846 330.439C564.155 331.991 563.997 333.6 563.391 335.061C562.786 336.523 561.76 337.773 560.445 338.652C559.129 339.531 557.582 340 556 340C553.878 340 551.843 339.157 550.343 337.657C548.843 336.157 548 334.122 548 332ZM500 572H244V556H500V572ZM412 540H332V492H412V540ZM148 476V460H596V476H148Z" fill="#00509D"></path><path d="M372 300C365.671 300 359.484 301.877 354.222 305.393C348.959 308.909 344.858 313.907 342.436 319.754C340.014 325.601 339.38 332.035 340.615 338.243C341.85 344.45 344.897 350.152 349.373 354.627C353.848 359.103 359.55 362.15 365.757 363.385C371.965 364.62 378.399 363.986 384.246 361.564C390.093 359.142 395.091 355.041 398.607 349.778C402.123 344.516 404 338.329 404 332C404 323.513 400.629 315.374 394.627 309.373C388.626 303.371 380.487 300 372 300ZM372 348C368.835 348 365.742 347.062 363.111 345.303C360.48 343.545 358.429 341.047 357.218 338.123C356.007 335.199 355.69 331.982 356.307 328.879C356.925 325.775 358.449 322.924 360.686 320.686C362.924 318.449 365.775 316.925 368.879 316.307C371.982 315.69 375.199 316.007 378.123 317.218C381.047 318.429 383.545 320.48 385.304 323.111C387.062 325.742 388 328.835 388 332C388 336.243 386.314 340.313 383.314 343.314C380.313 346.314 376.243 348 372 348ZM172 220H212V284C212 286.122 212.843 288.157 214.343 289.657C215.843 291.157 217.878 292 220 292H268C270.122 292 272.157 291.157 273.657 289.657C275.157 288.157 276 286.122 276 284C276 281.878 275.157 279.843 273.657 278.343C272.157 276.843 270.122 276 268 276H228V212C228 209.878 227.157 207.843 225.657 206.343C224.157 204.843 222.122 204 220 204H172C169.878 204 167.843 204.843 166.343 206.343C164.843 207.843 164 209.878 164 212C164 214.122 164.843 216.157 166.343 217.657C167.843 219.157 169.878 220 172 220ZM572 204H524C521.878 204 519.843 204.843 518.343 206.343C516.843 207.843 516 209.878 516 212V276H476C473.878 276 471.843 276.843 470.343 278.343C468.843 279.843 468 281.878 468 284C468 286.122 468.843 288.157 470.343 289.657C471.843 291.157 473.878 292 476 292H524C526.122 292 528.157 291.157 529.657 289.657C531.157 288.157 532 286.122 532 284V220H572C574.122 220 576.157 219.157 577.657 217.657C579.157 216.157 580 214.122 580 212C580 209.878 579.157 207.843 577.657 206.343C576.157 204.843 574.122 204 572 204Z" fill="#00509D"></path><defs><linearGradient id="paint0_linear_66_6" x1="65" y1="127" x2="-2.58517" y2="129.809" gradientUnits="userSpaceOnUse"><stop stop-color="#FD8900"></stop><stop offset="1" stop-color="#FFC700"></stop></linearGradient><linearGradient id="paint1_linear_66_6" x1="65" y1="580" x2="13.0114" y2="582.161" gradientUnits="userSpaceOnUse"><stop stop-color="#FD8900"></stop><stop offset="1" stop-color="#FFC700"></stop></linearGradient><linearGradient id="paint2_linear_66_6" x1="601" y1="204" x2="160.68" y2="236.144" gradientUnits="userSpaceOnUse"><stop stop-color="#FD8900"></stop><stop offset="1" stop-color="#FFC700"></stop></linearGradient></defs></svg>