<svg xmlns="http://www.w3.org/2000/svg" width="743" height="734" viewBox="0 0 743 734" fill="none"><circle cx="32.5" cy="159.5" r="27.5" stroke="url(#paint0_linear_66_4)" stroke-width="10"></circle><circle cx="653" cy="506" r="20" stroke="#00509D" stroke-width="10"></circle><circle cx="583" cy="20" r="15" stroke="#00509D" stroke-width="10"></circle><path d="M60.1923 600.192H44.8077V584.808C44.8077 582.147 42.661 580 40 580C37.339 580 35.1923 582.147 35.1923 584.808V600.192H19.8077C17.1467 600.192 15 602.339 15 605C15 607.661 17.1467 609.808 19.8077 609.808H35.1923V625.192C35.1923 627.853 37.339 630 40 630C42.661 630 44.8077 627.853 44.8077 625.192V609.808H60.1923C62.8533 609.808 65 607.661 65 605C65 602.339 62.8533 600.192 60.1923 600.192Z" fill="url(#paint1_linear_66_4)"></path><path d="M533.192 704.192H517.808V688.808C517.808 686.147 515.661 684 513 684C510.339 684 508.192 686.147 508.192 688.808V704.192H492.808C490.147 704.192 488 706.339 488 709C488 711.661 490.147 713.808 492.808 713.808H508.192V729.192C508.192 731.853 510.339 734 513 734C515.661 734 517.808 731.853 517.808 729.192V713.808H533.192C535.853 713.808 538 711.661 538 709C538 706.339 535.853 704.192 533.192 704.192Z" fill="#00509D"></path><path d="M738.192 129.192H722.808V113.808C722.808 111.147 720.661 109 718 109C715.339 109 713.192 111.147 713.192 113.808V129.192H697.808C695.147 129.192 693 131.339 693 134C693 136.661 695.147 138.808 697.808 138.808H713.192V154.192C713.192 156.853 715.339 159 718 159C720.661 159 722.808 156.853 722.808 154.192V138.808H738.192C740.853 138.808 743 136.661 743 134C743 131.339 740.853 129.192 738.192 129.192Z" fill="#00509D"></path><rect x="191" y="171" width="425" height="242" rx="10" fill="url(#paint2_linear_66_4)"></rect><path d="M365.173 344.898C364.491 344.898 363.808 344.784 363.239 344.556C360.281 343.419 358.802 340.233 359.94 337.275L413.529 192.436C414.667 189.477 417.852 187.998 420.811 189.136C423.769 190.274 425.248 193.46 424.224 196.418L370.521 341.143C369.724 343.419 367.563 344.898 365.173 344.898ZM237.515 317.819C218.969 317.819 203.95 303.483 203.95 285.961V222.018C203.95 218.832 206.453 216.329 209.639 216.329C212.825 216.329 215.328 218.832 215.328 222.018V285.961C215.328 297.225 225.34 306.441 237.515 306.441C249.689 306.441 259.701 297.225 259.701 285.961V222.018C259.701 218.832 262.204 216.329 265.39 216.329C268.576 216.329 271.079 218.832 271.079 222.018V285.961C271.193 303.596 256.06 317.819 237.515 317.819ZM292.469 317.819C291.559 317.819 290.649 317.591 289.739 317.136C287.008 315.657 285.984 312.244 287.463 309.399L336.388 218.604C337.867 215.874 341.28 214.85 344.124 216.329C346.855 217.808 347.879 221.221 346.4 224.066L297.476 314.86C296.452 316.795 294.517 317.819 292.469 317.819Z" fill="#00509D"></path><path d="M341.394 317.819C339.346 317.819 337.412 316.795 336.388 314.86L287.463 224.066C285.984 221.335 287.008 217.808 289.739 216.329C292.469 214.85 295.996 215.874 297.476 218.604L346.4 309.399C347.879 312.13 346.855 315.657 344.124 317.136C343.214 317.591 342.304 317.819 341.394 317.819ZM470.645 317.819C452.1 317.819 437.081 303.483 437.081 285.961V222.018C437.081 218.832 439.584 216.329 442.77 216.329C445.956 216.329 448.459 218.832 448.459 222.018V285.961C448.459 297.225 458.471 306.441 470.645 306.441C482.82 306.441 492.832 297.225 492.832 285.961V222.018C492.832 218.832 495.335 216.329 498.521 216.329C501.707 216.329 504.21 218.832 504.21 222.018V285.961C504.21 303.596 489.191 317.819 470.645 317.819ZM534.93 323.963C531.744 323.963 529.241 321.46 529.241 318.274V215.191C529.241 212.005 531.744 209.502 534.93 209.502C538.116 209.502 540.619 212.005 540.619 215.191V318.274C540.619 321.46 538.116 323.963 534.93 323.963ZM317.387 468.688C307.033 468.688 298.613 460.268 298.613 449.915C298.613 439.561 307.033 431.141 317.387 431.141C327.74 431.141 336.16 439.561 336.16 449.915C336.16 460.268 327.74 468.688 317.387 468.688ZM317.387 442.519C313.291 442.519 309.991 445.819 309.991 449.915C309.991 454.011 313.291 457.31 317.387 457.31C321.483 457.31 324.782 454.011 324.782 449.915C324.782 445.819 321.483 442.519 317.387 442.519ZM372.341 468.688C361.988 468.688 353.568 460.268 353.568 449.915C353.568 439.561 361.988 431.141 372.341 431.141C382.695 431.141 391.115 439.561 391.115 449.915C391.115 460.268 382.695 468.688 372.341 468.688ZM372.341 442.519C368.245 442.519 364.946 445.819 364.946 449.915C364.946 454.011 368.245 457.31 372.341 457.31C376.437 457.31 379.737 454.011 379.737 449.915C379.737 445.819 376.437 442.519 372.341 442.519ZM427.182 468.688C416.828 468.688 408.409 460.268 408.409 449.915C408.409 439.561 416.828 431.141 427.182 431.141C437.536 431.141 445.956 439.561 445.956 449.915C445.956 460.268 437.536 468.688 427.182 468.688ZM427.182 442.519C423.086 442.519 419.787 445.819 419.787 449.915C419.787 454.011 423.086 457.31 427.182 457.31C431.278 457.31 434.578 454.011 434.578 449.915C434.578 445.819 431.278 442.519 427.182 442.519Z" fill="#00509D"></path><path d="M588.405 497.246H156.163C136.707 497.246 120.892 481.431 120.892 461.975V154.889C120.892 135.433 136.707 119.618 156.163 119.618H588.405C607.861 119.618 623.676 135.433 623.676 154.889V461.975C623.79 481.431 607.861 497.246 588.405 497.246ZM156.163 130.882C142.965 130.882 132.27 141.577 132.27 154.775V461.861C132.27 475.06 142.965 485.755 156.163 485.755H588.405C601.603 485.755 612.299 475.06 612.299 461.861V154.889C612.299 141.691 601.603 130.996 588.405 130.996C588.405 130.882 156.163 130.882 156.163 130.882Z" fill="#00509D"></path><path d="M618.101 413.961H126.581C123.395 413.961 120.892 411.458 120.892 408.272C120.892 405.086 123.395 402.583 126.581 402.583H618.101C621.287 402.583 623.79 405.086 623.79 408.272C623.79 411.458 621.173 413.961 618.101 413.961ZM463.136 549.698C459.95 549.698 457.447 547.195 457.447 544.009V491.444C457.447 488.258 459.95 485.755 463.136 485.755C466.322 485.755 468.825 488.258 468.825 491.444V544.009C468.825 547.195 466.322 549.698 463.136 549.698ZM284.05 549.698C280.864 549.698 278.361 547.195 278.361 544.009V491.444C278.361 488.258 280.864 485.755 284.05 485.755C287.235 485.755 289.739 488.258 289.739 491.444V544.009C289.739 547.195 287.235 549.698 284.05 549.698Z" fill="#00509D"></path><path d="M494.197 590.089H250.372C236.036 590.089 224.43 578.484 224.43 564.148C224.43 549.925 236.036 538.206 250.372 538.206H494.083C508.306 538.206 520.025 549.812 520.025 564.148C520.025 578.484 508.419 590.089 494.197 590.089ZM250.372 549.698C242.407 549.698 235.808 556.183 235.808 564.261C235.808 572.34 242.293 578.825 250.372 578.825H494.083C502.048 578.825 508.647 572.34 508.647 564.261C508.647 556.183 502.162 549.698 494.083 549.698H250.372Z" fill="#00509D"></path><defs><linearGradient id="paint0_linear_66_4" x1="65" y1="127" x2="-2.58517" y2="129.809" gradientUnits="userSpaceOnUse"><stop stop-color="#FD8900"></stop><stop offset="1" stop-color="#FFC700"></stop></linearGradient><linearGradient id="paint1_linear_66_4" x1="65" y1="580" x2="13.0114" y2="582.161" gradientUnits="userSpaceOnUse"><stop stop-color="#FD8900"></stop><stop offset="1" stop-color="#FFC700"></stop></linearGradient><linearGradient id="paint2_linear_66_4" x1="616" y1="171" x2="175.68" y2="203.144" gradientUnits="userSpaceOnUse"><stop stop-color="#FD8900"></stop><stop offset="1" stop-color="#FFC700"></stop></linearGradient></defs></svg>