<svg xmlns="http://www.w3.org/2000/svg" width="743" height="734" viewBox="0 0 743 734" fill="none"><circle cx="32.5" cy="159.5" r="27.5" stroke="url(#paint0_linear_66_3)" stroke-width="10"></circle><circle cx="653" cy="506" r="20" stroke="#00509D" stroke-width="10"></circle><circle cx="583" cy="20" r="15" stroke="#00509D" stroke-width="10"></circle><path d="M60.1923 600.192H44.8077V584.808C44.8077 582.147 42.661 580 40 580C37.339 580 35.1923 582.147 35.1923 584.808V600.192H19.8077C17.1467 600.192 15 602.339 15 605C15 607.661 17.1467 609.808 19.8077 609.808H35.1923V625.192C35.1923 627.853 37.339 630 40 630C42.661 630 44.8077 627.853 44.8077 625.192V609.808H60.1923C62.8533 609.808 65 607.661 65 605C65 602.339 62.8533 600.192 60.1923 600.192Z" fill="url(#paint1_linear_66_3)"></path><path d="M533.192 704.192H517.808V688.808C517.808 686.147 515.661 684 513 684C510.339 684 508.192 686.147 508.192 688.808V704.192H492.808C490.147 704.192 488 706.339 488 709C488 711.661 490.147 713.808 492.808 713.808H508.192V729.192C508.192 731.853 510.339 734 513 734C515.661 734 517.808 731.853 517.808 729.192V713.808H533.192C535.853 713.808 538 711.661 538 709C538 706.339 535.853 704.192 533.192 704.192Z" fill="#00509D"></path><path d="M738.192 129.192H722.808V113.808C722.808 111.147 720.661 109 718 109C715.339 109 713.192 111.147 713.192 113.808V129.192H697.808C695.147 129.192 693 131.339 693 134C693 136.661 695.147 138.808 697.808 138.808H713.192V154.192C713.192 156.853 715.339 159 718 159C720.661 159 722.808 156.853 722.808 154.192V138.808H738.192C740.853 138.808 743 136.661 743 134C743 131.339 740.853 129.192 738.192 129.192Z" fill="#00509D"></path><rect x="296" y="321" width="149" height="135" rx="37" fill="url(#paint2_linear_66_3)"></rect><path d="M374.755 592H369.246C364.109 592.003 359.013 591.081 354.203 589.278C301.108 569.414 258.444 537.221 227.397 493.592C203.016 459.332 186.105 418.376 177.136 371.863C162.343 295.143 174.322 228.641 174.839 225.847C177.488 211.545 187.082 199.659 200.503 194.052L355.451 129.318C360.721 127.116 366.289 126 372 126C377.712 126 383.279 127.116 388.549 129.318L543.497 194.051C556.919 199.659 566.512 211.545 569.161 225.847C569.678 228.641 581.656 295.151 566.864 371.863C557.894 418.376 540.984 459.331 516.603 493.592C485.556 537.221 442.892 569.414 389.797 589.278C384.987 591.081 379.892 592.003 374.755 592ZM372 142C368.436 141.996 364.906 142.704 361.619 144.081L206.671 208.815C198.252 212.332 192.233 219.788 190.572 228.76C190.077 231.432 178.619 295.049 192.847 368.833C201.379 413.081 217.389 451.934 240.433 484.315C269.595 525.294 309.759 555.567 359.809 574.293C362.826 575.423 366.023 576.002 369.245 576H374.755C377.988 576 381.163 575.425 384.191 574.292C434.241 555.567 474.405 525.295 503.567 484.315C526.611 451.935 542.621 413.081 551.153 368.833C565.38 295.057 553.923 231.432 553.428 228.759C551.767 219.788 545.749 212.332 537.329 208.815L382.381 144.081C379.094 142.704 375.564 141.996 372 142Z" fill="#00509D"></path><path d="M374.755 557.069H369.245C368.288 557.069 367.339 556.897 366.442 556.562C319.995 539.185 282.788 511.185 255.856 473.34C234.396 443.182 219.45 406.816 211.435 365.249C204.348 328.501 204.102 294.37 205.144 272.209C206.275 248.128 209.067 232.846 209.185 232.208C209.427 230.9 209.991 229.674 210.826 228.64C211.661 227.605 212.741 226.795 213.968 226.283L368.916 161.549C369.893 161.141 370.941 160.93 372 160.93C373.058 160.93 374.107 161.141 375.083 161.549L530.031 226.283C531.258 226.795 532.338 227.605 533.173 228.64C534.008 229.674 534.572 230.9 534.814 232.208C534.932 232.846 537.724 248.128 538.855 272.209C539.897 294.37 539.651 328.5 532.565 365.249C524.549 406.816 509.604 443.182 488.143 473.34C461.211 511.185 424.005 539.185 377.557 556.562C376.661 556.898 375.712 557.07 374.755 557.069ZM370.704 541.069H373.296C451.401 511.373 499.695 451.208 516.854 362.22C527.858 305.157 521.899 254.008 519.75 239.328L372 177.601L224.247 239.328C223.363 245.338 221.836 257.444 221.104 273.444C220.129 294.744 220.401 327.518 227.236 362.689C244.481 451.422 292.742 511.428 370.704 541.069Z" fill="#00509D"></path><path d="M410.558 458.03H333.443C312.733 458.03 295.885 441.181 295.885 420.47V357.805C295.885 337.094 312.733 320.245 333.443 320.245H410.558C431.267 320.245 448.115 337.094 448.115 357.805V420.47C448.115 441.181 431.267 458.03 410.558 458.03ZM333.443 336.245C321.556 336.245 311.885 345.917 311.885 357.805V420.47C311.885 432.358 321.556 442.03 333.443 442.03H410.558C422.444 442.03 432.115 432.358 432.115 420.47V357.805C432.115 345.917 422.444 336.245 410.558 336.245H333.443ZM372 398.698C359.778 398.698 349.835 388.755 349.835 376.533C349.835 364.309 359.778 354.365 372 354.365C384.222 354.365 394.165 364.309 394.165 376.533C394.165 388.755 384.222 398.698 372 398.698ZM372 370.365C368.601 370.365 365.835 373.132 365.835 376.533C365.835 379.932 368.601 382.698 372 382.698C375.399 382.698 378.165 379.932 378.165 376.533C378.165 373.132 375.4 370.365 372 370.365Z" fill="#00509D"></path><path d="M421.819 336.246C417.401 336.246 413.819 332.664 413.819 328.246V303.742C413.819 280.683 395.059 261.924 372 261.924C348.941 261.924 330.181 280.684 330.181 303.742V328.246C330.181 332.664 326.6 336.246 322.181 336.246C317.763 336.246 314.181 332.664 314.181 328.246V303.742C314.181 288.298 320.196 273.779 331.116 262.859C342.037 251.938 356.556 245.924 372 245.924C387.444 245.924 401.964 251.938 412.884 262.859C423.805 273.779 429.819 288.298 429.819 303.742V328.246C429.819 332.664 426.237 336.246 421.819 336.246ZM372 422.575C367.582 422.575 364 418.993 364 414.575V390.698C364 386.279 367.582 382.698 372 382.698C376.418 382.698 380 386.279 380 390.698V414.575C380 418.993 376.418 422.575 372 422.575Z" fill="#00509D"></path><defs><linearGradient id="paint0_linear_66_3" x1="65" y1="127" x2="-2.58517" y2="129.809" gradientUnits="userSpaceOnUse"><stop stop-color="#FD8900"></stop><stop offset="1" stop-color="#FFC700"></stop></linearGradient><linearGradient id="paint1_linear_66_3" x1="65" y1="580" x2="13.0114" y2="582.161" gradientUnits="userSpaceOnUse"><stop stop-color="#FD8900"></stop><stop offset="1" stop-color="#FFC700"></stop></linearGradient><linearGradient id="paint2_linear_66_3" x1="445" y1="321" x2="290.132" y2="328.105" gradientUnits="userSpaceOnUse"><stop stop-color="#FD8900"></stop><stop offset="1" stop-color="#FFC700"></stop></linearGradient></defs></svg>