<svg xmlns="http://www.w3.org/2000/svg" width="743" height="734" viewBox="0 0 743 734" fill="none"><rect x="295" y="294" width="149" height="135" rx="10" fill="url(#paint0_linear_66_2)"></rect><path d="M431.051 264.484H306.729C284.381 264.484 266.199 282.666 266.199 305.014V424.986C266.199 447.334 284.381 465.516 306.729 465.516H431.051C453.399 465.516 471.581 447.334 471.581 424.986V305.014C471.581 282.666 453.4 264.484 431.051 264.484ZM456.221 424.986C456.221 438.864 444.93 450.156 431.051 450.156H306.729C292.85 450.156 281.559 438.864 281.559 424.986V305.014C281.559 291.136 292.85 279.844 306.729 279.844H431.051C444.93 279.844 456.221 291.136 456.221 305.014V424.986ZM314.307 207.753V236.869C314.307 238.906 315.116 240.859 316.556 242.3C317.996 243.74 319.95 244.549 321.987 244.549C324.023 244.549 325.977 243.74 327.417 242.3C328.857 240.859 329.667 238.906 329.667 236.869V207.753C343.337 204.315 353.488 191.924 353.488 177.202C353.488 159.832 339.357 145.701 321.987 145.701C304.617 145.701 290.485 159.832 290.485 177.202C290.485 191.924 300.637 204.315 314.307 207.753ZM321.987 161.061C330.887 161.061 338.128 168.302 338.128 177.202C338.128 186.102 330.887 193.344 321.987 193.344C313.086 193.344 305.845 186.102 305.845 177.202C305.845 168.302 313.086 161.061 321.987 161.061ZM404.554 207.753V236.869C404.554 238.906 405.363 240.859 406.803 242.3C408.243 243.74 410.197 244.549 412.234 244.549C414.271 244.549 416.224 243.74 417.664 242.3C419.105 240.859 419.914 238.906 419.914 236.869V207.753C433.584 204.315 443.735 191.924 443.735 177.202C443.735 159.832 429.604 145.701 412.234 145.701C394.864 145.701 380.732 159.832 380.732 177.202C380.732 191.924 390.884 204.315 404.554 207.753ZM412.234 161.061C421.134 161.061 428.375 168.302 428.375 177.202C428.375 186.102 421.134 193.344 412.234 193.344C403.333 193.344 396.092 186.102 396.092 177.202C396.092 168.302 403.332 161.061 412.234 161.061ZM421.693 522.247V493.131C421.693 491.094 420.884 489.141 419.444 487.701C418.004 486.26 416.05 485.451 414.013 485.451C411.977 485.451 410.023 486.26 408.583 487.701C407.143 489.141 406.333 491.094 406.333 493.131V522.247C392.663 525.685 382.512 538.076 382.512 552.798C382.512 570.168 396.643 584.299 414.013 584.299C431.384 584.299 445.515 570.168 445.515 552.798C445.515 538.076 435.363 525.685 421.693 522.247ZM414.013 568.939C405.113 568.939 397.872 561.698 397.872 552.798C397.872 543.898 405.113 536.656 414.013 536.656C422.914 536.656 430.155 543.898 430.155 552.798C430.155 561.698 422.914 568.939 414.013 568.939ZM331.446 522.247V493.131C331.446 491.094 330.637 489.141 329.197 487.701C327.757 486.26 325.803 485.451 323.766 485.451C321.729 485.451 319.776 486.26 318.336 487.701C316.895 489.141 316.086 491.094 316.086 493.131V522.247C302.416 525.685 292.265 538.076 292.265 552.798C292.265 570.168 306.396 584.299 323.766 584.299C341.136 584.299 355.268 570.168 355.268 552.798C355.268 538.076 345.116 525.685 331.446 522.247ZM323.766 568.939C314.866 568.939 307.625 561.698 307.625 552.798C307.625 543.898 314.866 536.656 323.766 536.656C332.667 536.656 339.908 543.898 339.908 552.798C339.908 561.698 332.668 568.939 323.766 568.939ZM496.131 326.667H525.248C528.685 340.337 541.077 350.488 555.799 350.488C573.168 350.488 587.299 336.357 587.299 318.987C587.299 301.616 573.168 287.485 555.799 287.485C541.078 287.485 528.685 297.637 525.248 311.307H496.131C494.094 311.307 492.141 312.116 490.701 313.556C489.26 314.996 488.451 316.95 488.451 318.987C488.451 321.023 489.26 322.977 490.701 324.417C492.141 325.857 494.094 326.667 496.131 326.667ZM555.799 302.845C564.697 302.845 571.939 310.087 571.939 318.987C571.939 327.887 564.698 335.128 555.799 335.128C546.897 335.128 539.656 327.887 539.656 318.987C539.656 310.086 546.897 302.845 555.798 302.845H555.799ZM555.799 377.732C541.077 377.732 528.685 387.883 525.248 401.554H496.131C494.094 401.554 492.141 402.363 490.701 403.803C489.26 405.243 488.451 407.197 488.451 409.234C488.451 411.271 489.26 413.224 490.701 414.664C492.141 416.105 494.094 416.914 496.131 416.914H525.248C528.685 430.583 541.077 440.735 555.799 440.735C573.168 440.735 587.299 426.604 587.299 409.234C587.299 391.864 573.168 377.732 555.799 377.732ZM555.799 425.375C546.897 425.375 539.656 418.134 539.656 409.234C539.656 400.333 546.897 393.092 555.798 393.092C564.698 393.092 571.939 400.332 571.939 409.234C571.939 418.135 564.698 425.375 555.798 425.375H555.799ZM239.869 403.333H210.755C207.316 389.663 194.925 379.512 180.204 379.512C162.833 379.512 148.702 393.643 148.702 411.013C148.702 428.383 162.833 442.515 180.203 442.515C194.925 442.515 207.316 432.363 210.755 418.693H239.87C241.907 418.693 243.86 417.884 245.301 416.444C246.741 415.004 247.55 413.05 247.55 411.013C247.55 408.977 246.741 407.023 245.301 405.583C243.86 404.143 241.907 403.333 239.87 403.333H239.869ZM180.203 427.155C171.302 427.155 164.061 419.913 164.061 411.013C164.061 402.113 171.302 394.872 180.202 394.872C189.103 394.872 196.344 402.113 196.344 411.013C196.344 419.913 189.104 427.155 180.203 427.155ZM239.869 313.086H210.755C207.314 299.417 194.924 289.265 180.202 289.265C162.831 289.265 148.7 303.396 148.7 320.766C148.7 338.136 162.831 352.268 180.2 352.268C194.923 352.268 207.314 342.117 210.753 328.446H239.868C241.905 328.446 243.858 327.637 245.299 326.197C246.739 324.757 247.548 322.803 247.548 320.766C247.548 318.729 246.739 316.776 245.299 315.336C243.858 313.895 241.906 313.086 239.869 313.086ZM180.203 336.908C171.302 336.908 164.061 329.668 164.061 320.766C164.061 311.865 171.302 304.625 180.202 304.625C189.103 304.625 196.344 311.866 196.344 320.766C196.344 329.667 189.104 336.908 180.203 336.908Z" fill="#00509D"></path><path d="M360.385 323.774C359.36 321.459 357.684 319.491 355.562 318.11C353.44 316.729 350.963 315.994 348.431 315.994C345.9 315.994 343.422 316.729 341.3 318.11C339.178 319.491 337.503 321.459 336.478 323.774L303.341 398.608C300.998 403.898 304.871 409.849 310.657 409.849C312.216 409.849 313.741 409.394 315.044 408.539C316.348 407.685 317.373 406.468 317.995 405.038L324.296 390.552C324.466 390.16 324.748 389.826 325.105 389.592C325.463 389.357 325.881 389.233 326.309 389.233H370.489C371.363 389.233 372.153 389.751 372.501 390.552L378.794 405.021C379.418 406.456 380.447 407.677 381.756 408.535C383.064 409.392 384.595 409.849 386.16 409.849C391.967 409.849 395.855 403.876 393.504 398.565L360.385 323.774ZM362.692 375.422H334.302C333.938 375.422 333.58 375.332 333.26 375.159C332.939 374.986 332.667 374.736 332.467 374.432C332.268 374.127 332.147 373.778 332.116 373.416C332.085 373.053 332.144 372.688 332.289 372.354L346.485 339.674C347.249 337.914 349.745 337.914 350.51 339.674L364.705 372.354C364.85 372.688 364.909 373.053 364.878 373.416C364.847 373.778 364.726 374.127 364.526 374.432C364.327 374.736 364.054 374.986 363.734 375.159C363.414 375.332 363.056 375.422 362.692 375.422ZM418.003 315.994C415.799 315.994 413.684 316.87 412.126 318.429C410.567 319.988 409.691 322.102 409.691 324.306V401.536C409.691 403.741 410.567 405.855 412.126 407.414C413.684 408.972 415.799 409.848 418.003 409.848C420.207 409.848 422.322 408.972 423.88 407.414C425.439 405.855 426.315 403.741 426.315 401.536V324.306C426.315 322.102 425.439 319.988 423.88 318.429C422.322 316.87 420.207 315.994 418.003 315.994Z" fill="#00509D"></path><circle cx="32.5" cy="159.5" r="27.5" stroke="url(#paint1_linear_66_2)" stroke-width="10"></circle><circle cx="653" cy="506" r="20" stroke="#00509D" stroke-width="10"></circle><circle cx="583" cy="20" r="15" stroke="#00509D" stroke-width="10"></circle><path d="M60.1923 600.192H44.8077V584.808C44.8077 582.147 42.661 580 40 580C37.339 580 35.1923 582.147 35.1923 584.808V600.192H19.8077C17.1467 600.192 15 602.339 15 605C15 607.661 17.1467 609.808 19.8077 609.808H35.1923V625.192C35.1923 627.853 37.339 630 40 630C42.661 630 44.8077 627.853 44.8077 625.192V609.808H60.1923C62.8533 609.808 65 607.661 65 605C65 602.339 62.8533 600.192 60.1923 600.192Z" fill="url(#paint2_linear_66_2)"></path><path d="M533.192 704.192H517.808V688.808C517.808 686.147 515.661 684 513 684C510.339 684 508.192 686.147 508.192 688.808V704.192H492.808C490.147 704.192 488 706.339 488 709C488 711.661 490.147 713.808 492.808 713.808H508.192V729.192C508.192 731.853 510.339 734 513 734C515.661 734 517.808 731.853 517.808 729.192V713.808H533.192C535.853 713.808 538 711.661 538 709C538 706.339 535.853 704.192 533.192 704.192Z" fill="#00509D"></path><path d="M738.192 129.192H722.808V113.808C722.808 111.147 720.661 109 718 109C715.339 109 713.192 111.147 713.192 113.808V129.192H697.808C695.147 129.192 693 131.339 693 134C693 136.661 695.147 138.808 697.808 138.808H713.192V154.192C713.192 156.853 715.339 159 718 159C720.661 159 722.808 156.853 722.808 154.192V138.808H738.192C740.853 138.808 743 136.661 743 134C743 131.339 740.853 129.192 738.192 129.192Z" fill="#00509D"></path><defs><linearGradient id="paint0_linear_66_2" x1="444" y1="294" x2="289.132" y2="301.105" gradientUnits="userSpaceOnUse"><stop stop-color="#FD8900"></stop><stop offset="1" stop-color="#FFC700"></stop></linearGradient><linearGradient id="paint1_linear_66_2" x1="65" y1="127" x2="-2.58517" y2="129.809" gradientUnits="userSpaceOnUse"><stop stop-color="#FD8900"></stop><stop offset="1" stop-color="#FFC700"></stop></linearGradient><linearGradient id="paint2_linear_66_2" x1="65" y1="580" x2="13.0114" y2="582.161" gradientUnits="userSpaceOnUse"><stop stop-color="#FD8900"></stop><stop offset="1" stop-color="#FFC700"></stop></linearGradient></defs></svg>