<svg xmlns="http://www.w3.org/2000/svg" xmlns:xlink="http://www.w3.org/1999/xlink" xmlns:svgjs="http://svgjs.com/svgjs" width="512" height="512" x="0" y="0" viewBox="0 0 511.989 511.989" style="enable-background:new 0 0 512 512" xml:space="preserve"><g><path d="M136.529 511.989h238.933c50.347 0 82.364-43.614 93.807-62.362a58.68 58.68 0 0 0 7.305-42.94L449.19 279.226a57.902 57.902 0 0 0-20.762-33.792 257.688 257.688 0 0 0-52.736-31.027 55.384 55.384 0 0 0 16.836-35.217c0-97.775-91.622-158.413-119.714-174.677a33.603 33.603 0 0 0-33.638 0C211.093 20.769 119.462 81.407 119.462 179.19a55.384 55.384 0 0 0 16.836 35.217 257.67 257.67 0 0 0-52.676 31.01A57.9 57.9 0 0 0 62.809 279.2l-27.4 127.522a58.667 58.667 0 0 0 7.305 42.897c11.451 18.756 43.468 62.37 93.815 62.37zm247.467-68.266c0 9.426-7.641 17.067-17.067 17.067H145.062c-9.426 0-17.067-7.641-17.067-17.067V307.189c0-9.426 7.641-17.067 17.067-17.067h221.867c9.426 0 17.067 7.641 17.067 17.067zm-256 42.666a8.533 8.533 0 0 1 8.533-8.533h238.933a8.533 8.533 0 0 1 0 17.066H136.529a8.532 8.532 0 0 1-8.533-8.533zm8.61-306.474c1.195-3.763 9.028-22.605 46.259-34.193l2.219 15.582a57.485 57.485 0 0 0 20.881 36.591l14.31 11.418c20.871 16.715 50.544 16.715 71.415 0l14.37-11.46a57.504 57.504 0 0 0 20.855-36.582l2.202-15.522c36.83 11.503 44.911 30.123 46.251 34.185-.922 6.75-11.093 51.49-119.373 58.965-108.859-7.511-118.57-52.729-119.389-58.984zm62.899-38.4a285.322 285.322 0 0 1 56.491-4.992 284.575 284.575 0 0 1 56.491 5.001l-2.466 17.323a40.39 40.39 0 0 1-14.626 25.702L281.033 196c-14.771 11.35-35.328 11.35-50.099 0l-14.302-11.409a40.363 40.363 0 0 1-14.652-25.702zm48.222-122.24a16.52 16.52 0 0 1 16.538 0c22.938 13.286 91.571 58.368 107.725 129.237-18.159-14.549-52.215-29.056-115.994-29.056s-97.809 14.507-115.968 29.013c16.239-70.895 84.77-115.916 107.699-129.194zM52.1 410.272l27.401-127.505a40.894 40.894 0 0 1 14.575-23.893 248.982 248.982 0 0 1 56.713-32.196c19.772 13.594 51.977 25.728 104.636 29.312h1.144c52.659-3.567 84.864-15.701 104.636-29.303a249.196 249.196 0 0 1 56.73 32.213 40.903 40.903 0 0 1 14.566 23.893l27.383 127.454a41.763 41.763 0 0 1-5.171 30.49c-7.774 12.732-26.394 38.588-54.016 49.314a25.83 25.83 0 0 0 .367-3.661 25.437 25.437 0 0 0-9.216-19.507 33.885 33.885 0 0 0 9.216-23.159V307.189c0-18.851-15.282-34.133-34.133-34.133H145.062c-18.851 0-34.133 15.282-34.133 34.133v136.533a33.883 33.883 0 0 0 9.216 23.159 25.438 25.438 0 0 0-9.216 19.507 25.85 25.85 0 0 0 .367 3.652c-27.622-10.726-46.242-36.582-54.025-49.331a41.729 41.729 0 0 1-5.171-30.437z" fill="#ffffff" data-original="#000000" opacity="1"></path><path d="M255.996 315.723c-31.781-1.096-58.475 23.692-59.733 55.467a54.312 54.312 0 0 0 25.6 45.431v1.502c0 14.138 11.462 25.6 25.6 25.6h17.067c14.138 0 25.6-11.462 25.6-25.6v-1.502a54.316 54.316 0 0 0 25.6-45.431c-1.259-31.775-27.953-56.563-59.734-55.467zm21.632 88.448a8.534 8.534 0 0 0-4.565 7.552v6.4a8.533 8.533 0 0 1-8.533 8.533h-17.067a8.533 8.533 0 0 1-8.533-8.533v-6.4a8.534 8.534 0 0 0-4.565-7.552 37.77 37.77 0 0 1-21.035-32.981c1.262-22.346 20.312-39.49 42.667-38.4 22.355-1.09 41.404 16.054 42.667 38.4a37.773 37.773 0 0 1-21.036 32.981z" fill="#ffffff" data-original="#000000" opacity="1"></path><g fill-rule="evenodd" clip-rule="evenodd" transform="translate(-1)"><circle cx="239.929" cy="375.456" r="8.533" fill="#ffffff" data-original="#000000" opacity="1"></circle><circle cx="274.062" cy="375.456" r="8.533" fill="#ffffff" data-original="#000000" opacity="1"></circle></g></g></svg>