<svg xmlns="http://www.w3.org/2000/svg" xmlns:xlink="http://www.w3.org/1999/xlink" xmlns:svgjs="http://svgjs.com/svgjs" width="512" height="512" x="0" y="0" viewBox="0 0 512 512" style="enable-background:new 0 0 512 512" xml:space="preserve"><g><path d="M430.675 349.069V223.281a7 7 0 1 0-14 0v120.123H53.305V135.612c0-1.272.259-2.484.726-3.588 1.402-3.31 4.684-5.638 8.5-5.638h281.684a7.002 7.002 0 0 0 6.858-8.411 7.002 7.002 0 0 0-6.858-5.589H62.531c-10.405 0-19.234 6.878-22.18 16.327a23.136 23.136 0 0 0-1.046 6.899v213.457L6.274 432.521c-3.912 9.884-2.776 20.168 3.199 28.959s15.12 13.633 25.749 13.633h399.535c10.629 0 19.774-4.842 25.749-13.632 5.976-8.791 7.112-19.075 3.2-28.96zm-11.758 8.335 27.981 70.693H313.252l-15.823-24.725a7 7 0 0 0-5.896-3.227H178.448a7 7 0 0 0-5.896 3.227l-15.824 24.725H23.082l27.981-70.693zM296.63 428.097H173.349l8.929-13.951h105.423l8.928 13.951zm152.297 25.514c-3.336 4.907-8.236 7.502-14.17 7.502H35.223c-5.934 0-10.834-2.595-14.17-7.502-2.442-3.593-3.416-7.509-2.91-11.514h433.694c.506 4.005-.468 7.921-2.91 11.514zM136.594 234.895c0-17.783 4.886-35.248 13.912-50.403l-3.115 1.07a7 7 0 1 1-4.549-13.241l25.246-8.673a7.002 7.002 0 0 1 9.269 6.912l-1.071 25.688a7 7 0 0 1-13.988-.584l.162-3.888c-7.699 12.971-11.865 27.908-11.865 43.119 0 46.536 37.86 84.396 84.396 84.396s84.396-37.859 84.396-84.396-37.86-84.396-84.396-84.396c-11.043 0-21.776 2.098-31.902 6.235a6.998 6.998 0 0 1-9.128-3.832 7 7 0 0 1 3.832-9.127c11.815-4.828 24.331-7.276 37.198-7.276 54.256 0 98.396 44.14 98.396 98.396s-44.14 98.396-98.396 98.396-98.396-44.14-98.396-98.396zm98.396-69.978c-16.427 0-29.791 13.364-29.791 29.791v7.941h-4.491c-8.735 0-15.842 7.107-15.842 15.843v58.95c0 8.735 7.107 15.842 15.842 15.842h68.562c8.736 0 15.843-7.106 15.843-15.842v-58.95c0-8.735-7.107-15.843-15.843-15.843h-4.49v-7.941c0-16.427-13.364-29.791-29.791-29.791zm-15.791 29.791c0-8.707 7.083-15.791 15.791-15.791s15.791 7.084 15.791 15.791v7.941h-31.582zm51.915 23.784v58.95c0 .998-.844 1.842-1.843 1.842h-68.562a1.867 1.867 0 0 1-1.842-1.842v-58.95c0-.999.844-1.843 1.842-1.843h68.562c.999 0 1.843.844 1.843 1.843zm-58.12 31.339a7 7 0 1 1 12.124-7l3.311 5.733 17.546-17.546a7 7 0 0 1 9.899 9.9l-23.996 23.996a7.004 7.004 0 0 1-5.863 1.99 6.998 6.998 0 0 1-5.148-3.44l-7.872-13.634zm294.778-98.889a7.002 7.002 0 0 0-8.573-4.95l-20.498 5.493-5.426-9.397a46.01 46.01 0 0 0 5.096-11.953c3.158-11.786 1.557-24.062-4.507-34.566s-15.895-18.028-27.681-21.187a46.014 46.014 0 0 0-12.901-1.565l-5.181-8.974 15.005-15.007a6.999 6.999 0 0 0 0-9.899 7.002 7.002 0 0 0-9.899 0l-16.419 16.419a11.405 11.405 0 0 0-1.812 13.753l3.735 6.469a45.745 45.745 0 0 0-7.094 3.31l-5.089 2.938-4.872-2.812 3.456-12.896a7 7 0 1 0-13.522-3.623l-3.974 14.83c-1.308 4.885.782 10.051 5.082 12.67a45.147 45.147 0 0 0-3.339 2.532l-3.734-6.468a11.406 11.406 0 0 0-12.816-5.311l-22.431 6.01a7 7 0 0 0 3.623 13.523l20.499-5.492 5.177 8.966a45.895 45.895 0 0 0-6.111 16.699l-6.615 3.819c-6.12 3.534-10.624 9.104-12.825 15.797l-4.625-1.24a7.003 7.003 0 0 0-5.312.699l-17.336 10.01a7 7 0 0 0 7 12.125l14.825-8.561 4.461 1.197a28.475 28.475 0 0 0 3.345 9.038 28.447 28.447 0 0 0 6.156 7.415l-1.196 4.463-14.825 8.559a7 7 0 0 0 7 12.125l17.336-10.009a7.006 7.006 0 0 0 3.262-4.251l1.237-4.619c1.917.398 3.875.61 5.845.61 4.847 0 9.759-1.232 14.251-3.825l6.625-3.825a45.892 45.892 0 0 0 16.46 3.078c.345 0 .69-.025 1.035-.033l5.43 9.406-15.006 15.007a6.999 6.999 0 0 0 4.95 11.949 6.978 6.978 0 0 0 4.95-2.051l16.42-16.42a11.41 11.41 0 0 0 1.811-13.753l-3.984-6.901a45.578 45.578 0 0 0 4.099-1.721v.261a11.41 11.41 0 0 0 8.444 11.003l14.829 3.974a7.003 7.003 0 0 0 8.573-4.95 7 7 0 0 0-4.949-8.573l-12.897-3.456v-6.186l4.845-2.797a45.766 45.766 0 0 0 6.414-4.489l3.978 6.89a11.412 11.412 0 0 0 12.815 5.309l22.431-6.011a7 7 0 0 0 4.949-8.573zm-89.156-59.929a31.212 31.212 0 0 1 15.653-4.209c2.76 0 5.543.364 8.289 1.1 5.851 1.568 10.998 4.689 14.994 8.998l-69.147 39.923c-1.734-5.614-1.864-11.633-.295-17.484 2.19-8.174 7.397-14.985 14.663-19.18l15.844-9.147zm-50.009 65.324c-1.938-3.356-2.447-7.287-1.433-11.07 1.007-3.757 3.39-6.887 6.711-8.828.946 4.748 2.657 9.424 5.209 13.844s5.745 8.24 9.385 11.434c-6.962 3.967-15.861 1.567-19.871-5.38zm81.577-10.646-15.843 9.147c-12.991 7.499-29.147 4.68-38.937-5.888l69.149-39.924c4.257 13.763-1.378 29.164-14.369 36.665z" fill="#ffffff" data-original="#000000" opacity="1"></path></g></svg>