<svg xmlns="http://www.w3.org/2000/svg" xmlns:xlink="http://www.w3.org/1999/xlink" xmlns:svgjs="http://svgjs.com/svgjs" width="512" height="512" x="0" y="0" viewBox="0 0 609.644 609.644" style="enable-background:new 0 0 512 512" xml:space="preserve"><g><path d="M579.162 60.964H426.751V35.563C426.751 15.922 410.829 0 391.188 0s-35.563 15.922-35.563 35.563v25.402H30.482C13.647 60.964 0 74.612 0 91.447v406.429c0 16.835 13.647 30.482 30.482 30.482h201.182a31.386 31.386 0 0 1-29.283 20.321h-19.488c-22.446 0-40.643 18.196-40.643 40.643 0 11.223 9.098 20.321 20.321 20.321h284.5c11.223 0 20.321-9.098 20.321-20.321 0-22.447-18.196-40.643-40.643-40.643h-19.468a31.378 31.378 0 0 1-29.304-20.321h201.182c16.835 0 30.482-13.647 30.482-30.482V91.447c.003-16.835-13.644-30.483-30.479-30.483zM20.321 162.572h314.983v60.964H132.09c-44.893 0-81.286 36.393-81.286 81.286s36.393 81.286 81.286 81.286h81.895a91.93 91.93 0 0 0 28.45 56.697c1.616 1.504 3.312 2.886 5.019 4.268H20.321zm289.388 284.317a70.302 70.302 0 0 1-53.364-18.94 71.442 71.442 0 0 1-22.648-52.003V294.66a7.692 7.692 0 0 1 .173-1.636 5.365 5.365 0 0 1 3.953-4.288 7.773 7.773 0 0 1 7.793 1.727l34.719 34.679h-16.156c-5.612 0-10.161 4.549-10.161 10.161v38.916c-.013.872.031 1.745.132 2.611a50.713 50.713 0 0 0 84.812 36.711 50.906 50.906 0 0 0 15.587-27.434h20.159c-5.193 32.754-31.971 57.795-64.999 60.782zm-33.144-60.781h56.829a30.025 30.025 0 0 1-56.829 0zm68.9-20.322H274.34v-20.321h5.995a20.323 20.323 0 0 0 14.327-34.719l-34.648-34.648a27.85 27.85 0 0 0-28.45-6.686 25.291 25.291 0 0 0-17.69 19.996 27.32 27.32 0 0 0-.498 5.253v71.125H132.09c-33.67 0-60.964-27.295-60.964-60.964s27.295-60.964 60.964-60.964h345.465c33.67 0 60.964 27.295 60.964 60.964s-27.295 60.964-60.964 60.964zm18.553-243.695a9.985 9.985 0 0 1 8.301 2.246 10.157 10.157 0 0 1 3.627 7.753v91.447h-20.321V133.31a10.944 10.944 0 0 1 8.393-11.219zm31.285 264.017h82.251c44.893 0 81.286-36.393 81.286-81.286s-36.393-81.286-81.286-81.286h-81.286v-60.964h193.054v284.5H361.163a95.599 95.599 0 0 0 34.14-60.964zM589.322 91.447v50.804H396.269V132.09a29.833 29.833 0 0 0-20.321-28.552V81.286h203.215c5.61 0 10.159 4.549 10.159 10.161zM375.947 35.563c0-8.417 6.824-15.241 15.241-15.241s15.241 6.824 15.241 15.241v25.402h-30.482zM30.482 81.286h325.143v22.089a31.803 31.803 0 0 0-20.321 29.934v8.941H20.321V91.447c0-5.612 4.55-10.161 10.161-10.161zm376.801 487.715h19.468c11.223 0 20.321 9.098 20.321 20.321h-284.5c0-11.223 9.098-20.321 20.321-20.321h19.468c24.275-.047 45.263-16.94 50.499-40.643h103.883c5.256 23.708 26.257 40.596 50.54 40.643zm182.039-71.125c0 5.612-4.549 10.161-10.161 10.161H30.482c-5.612 0-10.161-4.549-10.161-10.161v-30.482h569.001z" fill="#ffffff" data-original="#000000" opacity="1"></path><g fill-rule="evenodd" clip-rule="evenodd"><path d="M177.447 284.5c-2.806-4.86-9.02-6.525-13.88-3.719l-11.177 6.442V274.34c0-5.612-4.549-10.161-10.161-10.161s-10.161 4.549-10.161 10.161v12.884l-11.177-6.442c-4.855-2.761-11.029-1.085-13.821 3.752-2.793 4.837-1.158 11.021 3.661 13.846l11.197 6.442-11.177 6.442a10.16 10.16 0 0 0-.039 17.644 10.162 10.162 0 0 0 10.2-.045l11.177-6.442v12.884c0 5.612 4.549 10.161 10.161 10.161s10.161-4.549 10.161-10.161V322.42l11.177 6.442a10.162 10.162 0 1 0 10.161-17.599l-11.177-6.442 11.177-6.442c4.852-2.812 6.507-9.024 3.698-13.879zM477.554 322.42l11.177 6.442c4.855 2.761 11.029 1.085 13.821-3.752 2.793-4.837 1.158-11.021-3.661-13.846l-11.177-6.442 11.177-6.442c4.818-2.825 6.453-9.009 3.661-13.846-2.793-4.837-8.966-6.513-13.821-3.752l-11.177 6.442V274.34c0-5.612-4.549-10.161-10.161-10.161s-10.161 4.549-10.161 10.161v12.884l-11.177-6.442a10.162 10.162 0 1 0-10.161 17.599l11.177 6.442-11.177 6.442a10.16 10.16 0 0 0-.039 17.644 10.162 10.162 0 0 0 10.2-.045l11.177-6.442v12.884c0 5.612 4.549 10.161 10.161 10.161s10.161-4.549 10.161-10.161zM400.983 284.5c-2.806-4.86-9.02-6.525-13.88-3.719l-11.177 6.442V274.34c0-5.612-4.549-10.161-10.161-10.161s-10.161 4.549-10.161 10.161v12.884l-11.177-6.442c-4.855-2.761-11.029-1.085-13.821 3.752-2.793 4.837-1.158 11.021 3.661 13.846l11.197 6.442-11.177 6.442a10.16 10.16 0 0 0-.039 17.644 10.162 10.162 0 0 0 10.2-.045l11.177-6.442v12.884c0 5.612 4.549 10.161 10.161 10.161s10.161-4.549 10.161-10.161V322.42l11.177 6.442a10.162 10.162 0 1 0 10.161-17.599l-11.177-6.442 11.177-6.442c4.852-2.812 6.507-9.024 3.698-13.879z" fill="#ffffff" data-original="#000000" opacity="1"></path><circle cx="50.804" cy="111.768" r="10.161" fill="#ffffff" data-original="#000000" opacity="1"></circle><circle cx="91.447" cy="111.768" r="10.161" fill="#ffffff" data-original="#000000" opacity="1"></circle><circle cx="132.09" cy="111.768" r="10.161" fill="#ffffff" data-original="#000000" opacity="1"></circle></g></g></svg>