<svg xmlns="http://www.w3.org/2000/svg" xmlns:xlink="http://www.w3.org/1999/xlink" xmlns:svgjs="http://svgjs.com/svgjs" width="512" height="512" x="0" y="0" viewBox="0 0 64 64" style="enable-background:new 0 0 512 512" xml:space="preserve"><g><path d="M10 16v22c0 .3.1.6.2.8.3.6 6.5 13.8 21 20 .3.1.5.2.8.2s.5-.1.8-.2c14.5-6.2 20.8-19.4 21-20 .1-.3.2-.5.2-.8V16c0-.9-.6-1.7-1.5-1.9-7.6-1.9-19.3-9.6-19.4-9.7-.7-.4-1.5-.5-2.2 0-.1.1-11.8 7.8-19.4 9.7-.9.2-1.5 1-1.5 1.9zm4 1.5c6.7-2.1 15-7.2 18-9.1 3 1.9 11.3 7 18 9.1v20c-1.1 2.1-6.7 12.1-18 17.3-11.3-5.2-16.9-15.2-18-17.3z" fill="#ffffff" data-original="#000000" opacity="1"></path><path d="M28.6 38.4c.4.4.9.6 1.4.6s1-.2 1.4-.6l9.9-9.9c.8-.8.8-2 0-2.8s-2-.8-2.8 0L30 34.2l-4.5-4.5c-.8-.8-2-.8-2.8 0s-.8 2 0 2.8z" fill="#ffffff" data-original="#000000" opacity="1"></path></g></svg>